<svg width="454" height="451" viewBox="0 0 454 451" fill="none" xmlns="http://www.w3.org/2000/svg">
<path d="M-150.291 -309.806C-182.399 -308.328 -211.219 -298.412 -236.487 -280.19C-255.612 -266.4 -270.394 -249.32 -279.801 -230.136C-288.056 -213.347 -292.687 -195.662 -294.607 -173.5C-295.111 -167.523 -295.207 -147.309 -294.727 -140.817C-292.735 -113.306 -288.728 -90.7186 -277.857 -45.6789C-267.131 -1.37796 -264.899 10.061 -263.939 25.619C-263.075 39.5876 -266.603 62.7342 -273.442 87.8508C-278.457 106.252 -282.273 117.915 -296.599 158.141C-308.981 192.906 -313.252 205.42 -317.692 219.925C-333.169 270.517 -337.393 308.057 -331.37 341.367C-326.834 366.439 -315.964 389.182 -299.046 409.083C-278.673 433.013 -254.724 446.355 -226.097 449.713C-201.26 452.623 -173.424 448.258 -135.701 435.498C-127.303 432.655 -116.792 428.805 -102.226 423.253C-82.9808 415.888 -73.0942 412.195 -65.6312 409.576C-43.8903 401.942 -27.8366 397.958 -13.5586 396.637C-6.74356 396.01 2.39914 396.413 8.47028 397.577C10.9659 398.069 11.4219 398.181 20.1566 400.666C82.8118 418.53 169.847 427.999 240.685 424.641C312.867 421.216 366.74 406.621 398.943 381.795C402.687 378.907 409.622 372.438 412.669 368.991C426.875 352.94 438.034 334.338 444.897 315.243C454.807 287.664 456.775 257.757 450.896 224.85C441.225 170.946 409.766 109.542 357.357 42.2962C331.729 9.45663 301.733 -24.256 264.202 -62.3561C254.004 -72.6982 249.444 -77.1306 236.606 -89.174C165.936 -155.525 83.7236 -219.435 21.8364 -256.148C-41.8266 -293.89 -100.282 -312.112 -150.291 -309.806Z" fill="#601B81"/>
</svg>
